<svg width="24" height="24" viewBox="0 0 24 24" fill="none" xmlns="http://www.w3.org/2000/svg">
<path fill-rule="evenodd" clip-rule="evenodd" d="M12.586 2.586C12.211 2.2109 11.7024 2.00011 11.172 2H4C3.46957 2 2.96086 2.21071 2.58579 2.58579C2.21071 2.96086 2 3.46957 2 4V11.172C2.00011 11.7024 2.2109 12.211 2.586 12.586L11.29 21.29C11.7445 21.7416 12.3592 21.9951 13 21.9951C13.6408 21.9951 14.2555 21.7416 14.71 21.29L21.29 14.71C21.7416 14.2555 21.9951 13.6408 21.9951 13C21.9951 12.3592 21.7416 11.7445 21.29 11.29C21.29 11.29 12.961 2.9611 12.586 2.586ZM7.5 9C8.32843 9 9 8.32843 9 7.5C9 6.67157 8.32843 6 7.5 6C6.67157 6 6 6.67157 6 7.5C6 8.32843 6.67157 9 7.5 9Z" fill="#F1F4F4"/>
</svg>
