<svg width="28" height="28" viewBox="0 0 28 28" fill="none" xmlns="http://www.w3.org/2000/svg">
<path d="M22.1667 5.83334C21.5478 5.83334 20.9543 6.07918 20.5168 6.51676C20.0792 6.95435 19.8333 7.54784 19.8333 8.16668V21M2.33334 21C3.03334 21.5833 3.73334 22.1667 5.25001 22.1667C8.16668 22.1667 8.16668 19.8333 11.0833 19.8333C14.1167 19.8333 13.8833 22.1667 16.9167 22.1667C19.8333 22.1667 19.8333 19.8333 22.75 19.8333C24.2667 19.8333 24.9667 20.4167 25.6667 21M8.16668 15.1667H19.8333M8.16668 10.5H19.8333M10.5 5.83334C9.88117 5.83334 9.28768 6.07918 8.85009 6.51676C8.41251 6.95435 8.16668 7.54784 8.16668 8.16668V21" stroke="#FAFAFA" stroke-width="2" stroke-linecap="round" stroke-linejoin="round"/>
</svg>
