<svg width="32" height="32" viewBox="0 0 32 32" fill="none" xmlns="http://www.w3.org/2000/svg">
<path d="M19.811 10.4668C19.9181 10.8821 20.1346 11.261 20.4379 11.5643C20.7411 11.8676 21.1201 12.084 21.5354 12.1911L27.5638 15.4228C27.6894 15.4585 27.8 15.5341 27.8787 15.6383C27.9574 15.7424 28 15.8694 28 16C28 16.1306 27.9574 16.2576 27.8787 16.3617C27.8 16.4659 27.6894 16.5415 27.5638 16.5772L21.5354 19.8101C21.1202 19.9171 20.7414 20.1334 20.4381 20.4364C20.1349 20.7394 19.9183 21.1182 19.811 21.5332L16.5793 27.5617C16.544 27.6878 16.4685 27.7989 16.3641 27.878C16.2598 27.9572 16.1325 28 16.0015 28C15.8706 28 15.7433 27.9572 15.6389 27.878C15.5346 27.7989 15.459 27.6878 15.4238 27.5617L12.1933 21.5332C12.0861 21.118 11.8697 20.739 11.5664 20.4357C11.2632 20.1325 10.8842 19.916 10.4689 19.8089L4.44043 16.5784C4.31384 16.5435 4.20219 16.468 4.12263 16.3635C4.04307 16.259 3.99999 16.1313 3.99999 16C3.99999 15.8687 4.04307 15.741 4.12263 15.6365C4.20219 15.532 4.31384 15.4565 4.44043 15.4216L10.4689 12.1911C10.8842 12.084 11.2632 11.8676 11.5664 11.5643C11.8697 11.261 12.0861 10.8821 12.1933 10.4668L15.425 4.4383C15.4602 4.31221 15.5358 4.20112 15.6401 4.12198C15.7445 4.04285 15.8718 4.00001 16.0027 4.00001C16.1337 4.00001 16.261 4.04285 16.3653 4.12198C16.4697 4.20112 16.5452 4.31221 16.5805 4.4383L19.811 10.4668Z" fill="#AAB3B2"/>
<path d="M26.6667 4V9.33333M29.3333 6.66667H24M5.33333 22.6667V25.3333M6.66667 24H4" stroke="#AAB3B2" stroke-width="2.66667" stroke-linecap="round" stroke-linejoin="round"/>
</svg>
